<?xml version="1.0" encoding="UTF-8" standalone="no" ?>
<!DOCTYPE svg PUBLIC "-//W3C//DTD SVG 1.1//EN" "http://www.w3.org/Graphics/SVG/1.1/DTD/svg11.dtd">
<svg xmlns="http://www.w3.org/2000/svg" xmlns:xlink="http://www.w3.org/1999/xlink" version="1.1" width="1000" height="1000" viewBox="0 0 1000 1000" xml:space="preserve">
<desc>Created with Fabric.js 4.6.0</desc>
<defs>
</defs>
<g transform="matrix(1 0 0 1 387.85 484.78)" id="IezRnepBT3VKIpytaM_Fb"  >
<path style="stroke: rgb(49,168,247); stroke-width: 1; stroke-dasharray: none; stroke-linecap: butt; stroke-dashoffset: 0; stroke-linejoin: miter; stroke-miterlimit: 4; fill: rgb(49,168,247); fill-rule: nonzero; opacity: 1;" vector-effect="non-scaling-stroke"  transform=" translate(0, 0)" d="M -374.8921 -119.34155 C -373.23097 -142.26514 -361.93529 -157.40694 -361.93529 -157.40694 C -361.93529 -157.40694 -358.7009 -161.73325 -355.66296 -165.30468 C -352.62502 -168.87610999999998 -349.3107 -172.16547 -349.3107 -172.16547 L -210.10985 -311.48927000000003 L -207.95295 -313.74445000000003 L -206.15180999999998 -314.47319000000005 L -203.88396999999998 -314.47319000000005 L -201.92088999999999 -314.47319000000005 L -200.07894 -313.74445000000003 L -199.41268 -311.90314 L -199.41268 -224.43371000000002 L -201.29390999999998 -222.40584 L -299.00160999999997 -124.34007000000001 L -301.30841999999996 -121.21286 C -301.30841999999996 -121.21286 -302.16439999999994 -119.87696000000001 -302.85490999999996 -118.43548000000001 C -303.54542 -116.99401000000002 -304.21248999999995 -115.30492000000001 -304.21248999999995 -115.30492000000001 C -304.21248999999995 -115.30492000000001 -304.63125999999994 -114.41910000000001 -304.89627999999993 -113.18632000000001 C -305.1612999999999 -111.95354 -305.2725699999999 -110.37379000000001 -305.2725699999999 -110.37379000000001 L -306.1248399999999 266.32352000000003 L -305.2725699999999 271.7671 L -301.3084099999999 280.29255 L -298.2044899999999 286.45554 L -292.2698099999999 292.39301 L -286.6423399999999 296.95922 L -279.94243999999986 300.11861 L -274.08525999999983 301.97785999999996 L -269.5958499999998 302.89529 L -263.6576799999998 303.65981999999997 L -257.9541099999998 303.65981999999997 L -252.5472699999998 302.89529 L -247.6005399999998 301.97785999999996 L -241.5084399999998 299.20117999999997 L -232.9470999999998 294.67746999999997 L -226.08044999999981 287.82707 L -221.34220999999982 282.33553 C -221.34220999999982 282.33553 -219.2578299999998 280.24475 -218.47971999999982 277.72271 C -218.1545799999998 276.66886 -217.23566999999983 274.2063 -217.23566999999983 274.2063 L -216.57715999999982 269.37118 L -216.57715999999982 93.57157999999998 L -216.1303999999998 89.32734999999998 L -214.5542499999998 82.96083999999998 L -212.6122999999998 76.30759999999998 L -209.4435799999998 67.22799999999998 L -206.1517999999998 60.76033999999998 L -201.2938999999998 53.17327999999998 L -196.0447599999998 45.984609999999975 L -189.3283399999998 39.137499999999974 L -182.9787399999998 33.79555999999997 L -175.5349999999998 28.702369999999974 L -169.8072899999998 25.61185999999997 L -160.8659199999998 21.572879999999973 L -153.46931999999978 19.596699999999974 L -146.60657999999978 18.082479999999975 L -137.9254599999998 17.483679999999975 L -114.51319999999978 17.483679999999975 L -114.89929999999978 -360.59175 L -114.51319999999978 -363.68055 L -113.69273999999979 -366.33499 L -112.10007999999979 -368.21723000000003 L -110.6039399999998 -370.05121 L -108.8664899999998 -371.40256000000005 L -106.5729399999998 -372.56086000000005 L -103.9032599999998 -373.29030000000006 L 34.10370000000019 -372.86893000000003 L 36.46388000000019 -372.56086000000005 L 39.08700000000019 -371.40256000000005 L 41.016860000000186 -370.05121 L 43.252640000000184 -367.40457000000004 L 44.412120000000186 -364.75731 L 45.226450000000185 -362.41597 L 45.80575000000019 -103.92406 L 46.494050000000186 -99.09877999999999 L 47.96898000000019 -95.80698 L 50.60487000000019 -92.17984 L 54.84170000000019 -90.12595 L 58.53268000000019 -89.46627000000001 L 199.7202700000002 -89.46627000000001 L 203.6512500000002 -90.12595 L 207.2962800000002 -92.17984 L 210.7310100000002 -95.80698 L 212.0581800000002 -99.09877999999999 L 213.5233800000002 -103.92406 L 213.5233800000002 -361.00543 L 214.0559200000002 -364.75732 L 215.1601300000002 -366.335 L 216.76939000000021 -368.21724 L 218.3839000000002 -370.05122 L 221.1663600000002 -371.92224 L 225.1419000000002 -373.29031 L 363.8189100000002 -373.29031 L 367.7657800000002 -371.92224 L 371.30113000000017 -370.05122 L 372.98111000000017 -368.21724 L 374.01748000000015 -366.335 L 374.97902000000016 -364.75732 L 374.97902000000016 -361.00543 L 375.6303800000002 359.79164 L 374.01748000000015 363.86274999999995 L 371.30113000000017 368.7449 L 367.7657800000002 371.10179999999997 L 360.1900200000002 373.29035 L 225.14190000000016 373.29035 L 220.09139000000016 371.10179999999997 L 216.05099000000016 367.22974999999997 L 213.52337000000014 363.02099999999996 L 213.52337000000014 60.760359999999935 L 212.05817000000013 56.644719999999936 L 207.29627000000013 51.44990999999993 L 201.90357000000014 49.50185999999993 L 57.31483000000014 49.50185999999993 L 50.60487000000014 51.44990999999993 L 46.49405000000014 56.644719999999936 L 44.412120000000144 60.760359999999935 L 44.412120000000144 361.2791899999999 L 42.19401000000014 367.22975999999994 L 38.43554000000014 371.10180999999994 L 31.746260000000138 373.29035999999996 L -102.98811999999985 373.29035999999996 L -108.86648999999986 371.10180999999994 L -114.89930999999986 363.86274999999995 L -114.51320999999986 87.12858999999997 L -124.41668999999986 87.12858999999997 L -129.61149999999986 89.32736999999997 L -135.02275999999986 92.53984999999997 L -140.43401999999986 97.51819999999998 L -144.76301999999987 103.36235999999998 L -146.60659999999987 110.28876999999999 L -146.60659999999987 265.14063 L -148.22621999999987 280.29258 L -151.68941999999987 294.67749 L -156.45131999999987 308.64712 L -162.29547999999986 317.95448 L -170.95348999999985 330.29214 L -180.26084999999983 340.68175 L -190.21755999999982 349.77266000000003 L -198.8755699999998 354.96747000000005 L -212.6123199999998 363.02101000000005 L -228.1262699999998 368.74492000000004 L -243.2777899999998 371.10182000000003 L -259.5115599999998 372.11576 L -272.9314699999998 372.11576 L -288.9487899999998 369.73481000000004 L -311.2431599999998 363.02101000000005 L -324.87951999999984 354.96747000000005 L -342.62843999999984 339.43178000000006 L -353.01804999999985 327.0941200000001 L -361.93529999999987 315.4058100000001 L -370.5505199999999 292.3930400000001 L -373.3643699999999 281.2066800000001 L -374.8921099999999 271.7671400000001 C -374.8921099999999 271.7671400000001 -376.5532399999999 -96.41791999999992 -374.8921099999999 -119.34149999999988 z" stroke-linecap="round" />
</g>
<g transform="matrix(1 0 0 1 902.19 750.78)" id="LLv20P7BzxBEYN8iewou8"  >
<path style="stroke: rgb(49,168,247); stroke-width: 1; stroke-dasharray: none; stroke-linecap: butt; stroke-dashoffset: 0; stroke-linejoin: miter; stroke-miterlimit: 4; fill: rgb(49,168,247); fill-rule: nonzero; opacity: 1;" vector-effect="non-scaling-stroke"  transform=" translate(0, 0)" d="M 92.09784 154.51304 C 91.82315 155.56620999999998 90.9991 156.28687 90.9991 156.28687 C 90.9991 156.28687 90.50544 156.93188999999998 89.73675 157.29254 C 88.96806 157.6532 87.92434 157.72949 87.92434 157.72949 L -81.96813 157.29254 C -81.96813 157.29254 -84.28507 157.15213 -86.05231 156.56527 C -87.81954 155.97841 -89.03707 154.94509 -89.03707 154.94509 C -89.03707 154.94509 -90.62221 153.6965 -91.42866 152.07421 C -92.23510999999999 150.45192 -92.26288 148.45593 -92.26288 148.45593 L -92.26288 74.80001999999999 L -90.03923999999999 65.60753999999999 L -86.05232 54.46058999999998 L -81.96813999999999 45.485019999999984 C -81.96813999999999 45.485019999999984 -79.79896 41.83723999999999 -77.38337999999999 38.05411999999998 C -74.96779999999998 34.27098999999998 -71.47241999999999 30.352519999999984 -71.47241999999999 30.352519999999984 C -71.47241999999999 30.352519999999984 -67.44705999999998 25.290669999999984 -60.25915999999999 18.719229999999982 C -53.07125999999999 12.147789999999983 -42.72082999999999 4.066749999999981 -42.72082999999999 4.066749999999981 L 5.128630000000008 -24.96551000000002 L 26.634010000000007 -40.01927000000002 L 31.122830000000008 -47.57713000000002 L 34.30675000000001 -54.193260000000016 L 35.097710000000006 -60.84394000000002 L 35.097710000000006 -75.75464000000002 C 35.097710000000006 -75.75464000000002 34.71106 -79.95034000000003 32.94529000000001 -83.57937000000003 C 31.179520000000007 -87.20840000000003 28.749930000000006 -90.55689000000002 28.749930000000006 -90.55689000000002 C 28.749930000000006 -90.55689000000002 27.607990000000008 -92.66217000000002 24.651010000000007 -94.54389000000002 C 21.694020000000005 -96.42561000000002 18.924840000000007 -98.08377000000002 18.924840000000007 -98.08377000000002 C 18.924840000000007 -98.08377000000002 14.751530000000006 -99.88531000000002 11.211340000000007 -100.77194000000001 C 7.6711400000000065 -101.65858000000001 3.333450000000007 -101.63031000000001 3.333450000000007 -101.63031000000001 C 3.333450000000007 -101.63031000000001 -3.792959999999993 -101.44398000000001 -7.870789999999993 -100.77194000000001 C -11.948619999999993 -100.09990000000002 -14.408479999999994 -98.08377000000002 -14.408479999999994 -98.08377000000002 L -22.406269999999992 -92.67667000000002 L -29.067669999999993 -84.46524000000002 L -32.59418999999999 -74.12517000000003 L -34.54361999999999 -64.81678000000002 L -35.54504999999999 -57.22356000000002 L -38.20543999999999 -54.19326000000002 L -87.88210999999998 -54.19326000000002 L -90.03922999999999 -55.57235000000002 L -91.42864999999999 -57.98271000000002 L -90.03922999999999 -74.12517000000003 L -86.05230999999999 -90.55690000000003 L -78.11169 -110.37053000000003 L -72.82835 -120.20035000000003 L -66.01678 -129.19273000000004 C -66.01678 -129.19273000000004 -63.63261 -132.73197000000005 -58.615069999999996 -136.91709000000003 C -53.59752999999999 -141.10222000000002 -45.94663 -145.93323000000004 -45.94663 -145.93323000000004 C -45.94663 -145.93323000000004 -39.57096 -150.20458000000005 -32.04407 -152.89275000000004 C -24.51719 -155.58092000000005 -15.839099999999998 -156.68591000000004 -15.839099999999998 -156.68591000000004 C -15.839099999999998 -156.68591000000004 -3.8652399999999982 -158.08043000000004 6.753040000000002 -157.64535000000004 C 17.371320000000004 -157.21028000000004 26.634020000000003 -154.94561000000004 26.634020000000003 -154.94561000000004 C 26.634020000000003 -154.94561000000004 38.574870000000004 -152.12383000000005 46.706320000000005 -147.95879000000005 C 54.837770000000006 -143.79374000000004 59.15982 -140.02572000000006 59.15982 -140.02572000000006 C 59.15982 -140.02572000000006 66.64806 -134.24598000000006 71.55533 -128.26615000000007 C 76.46258999999999 -122.28632000000007 78.52114 -117.71282000000006 78.52114 -117.71282000000006 C 78.52114 -117.71282000000006 81.91194 -112.27018000000007 84.11511 -107.73698000000006 C 86.31827 -103.20378000000007 87.3338 -99.58003000000006 87.3338 -99.58003000000006 L 90.61251999999999 -85.98375000000007 L 92.09785 -69.84710000000007 C 92.09785 -69.84710000000007 92.46918 -62.39557000000007 92.09785 -57.22355000000007 C 91.72652 -52.05153000000007 90.61251999999999 -49.159030000000065 90.61251999999999 -49.159030000000065 C 90.61251999999999 -49.159030000000065 90.02197 -42.08844000000006 87.3338 -34.561560000000064 C 84.64563 -27.034680000000066 80.35195999999999 -18.953080000000064 80.35195999999999 -18.953080000000064 C 80.35195999999999 -18.953080000000064 77.60372 -13.340300000000063 71.55533999999999 -6.082230000000063 C 65.50694999999999 1.1758299999999373 54.11589999999998 9.108659999999936 54.11589999999998 9.108659999999936 L 17.494239999999984 32.02375999999994 L -11.442740000000015 51.38345999999994 L -19.641370000000016 57.52094999999994 L -27.889350000000015 65.60755999999995 C -27.889350000000015 65.60755999999995 -31.859380000000016 69.30662999999996 -33.80752000000001 73.65901999999996 C -35.75566000000001 78.01141999999996 -36.134000000000015 82.42916999999996 -36.134000000000015 82.42916999999996 L -36.134000000000015 101.11070999999995 L 87.92434999999999 101.11070999999995 C 87.92434999999999 101.11070999999995 89.75286999999999 101.77281999999995 90.99910999999999 102.75612999999996 C 92.24535999999999 103.73943999999996 92.09785 105.38997999999995 92.09785 105.38997999999995 L 92.09785 152.07423999999995 C 92.09785 152.07423999999995 92.37254 153.45990999999995 92.09785 154.51307999999995 z" stroke-linecap="round" />
</g>
</svg>